<?xml version="1.0" standalone="no"?><!DOCTYPE svg PUBLIC "-//W3C//DTD SVG 1.1//EN" "http://www.w3.org/Graphics/SVG/1.1/DTD/svg11.dtd"><svg t="1678498447823" class="icon" viewBox="0 0 1062 1024" version="1.1" xmlns="http://www.w3.org/2000/svg" p-id="3633" xmlns:xlink="http://www.w3.org/1999/xlink" width="66.375" height="64"><path d="M550.4 0c-281.6 0-512 230.4-512 512s230.4 512 512 512 512-230.4 512-512-230.4-512-512-512z m358.4 556.8" fill="#489BF7" p-id="3634"></path><path d="M364.8 710.4c-83.2 0-153.6-83.2-153.6-160 0-89.6 57.6-160 128-179.2 32-83.2 121.6-153.6 224-153.6 108.8 0 192 76.8 211.2 172.8-76.8 6.4-134.4 44.8-160 89.6-6.4 19.2-12.8 25.6 0 19.2 25.6-51.2 83.2-83.2 147.2-89.6 38.4 6.4 70.4 12.8 108.8 64 12.8 19.2 19.2 51.2 19.2 96 0 64-64 134.4-134.4 134.4l-390.4 6.4zM512 633.6h38.4v76.8H512V633.6z m115.2 0h38.4v76.8h-38.4V633.6z m-230.4 0h38.4v76.8h-38.4V633.6z m0 0" fill="#FFFFFF" p-id="3635"></path></svg>