<?xml version="1.0" standalone="no"?><!DOCTYPE svg PUBLIC "-//W3C//DTD SVG 1.1//EN" "http://www.w3.org/Graphics/SVG/1.1/DTD/svg11.dtd"><svg t="1628243076066" class="icon" viewBox="0 0 1540 1024" version="1.1" xmlns="http://www.w3.org/2000/svg" p-id="22511" xmlns:xlink="http://www.w3.org/1999/xlink" width="48.125" height="32"><defs><style type="text/css"></style></defs><path d="M1082.780109 698.317155c0-58.17401-16.719302-107.644822-50.157906-148.412436-33.438604-40.767614-78.786849-61.15142-136.044733-61.15142-19.925744 0-67.10624 5.038694-141.770521 15.345113-34.35473 5.267725-72.373966 8.016104-114.286737 8.016104-41.68374 0-79.702975-2.748378-114.286737-8.016104-73.748155-10.077388-120.928651-15.345113-141.770521-15.345113-57.257884 0-102.606128 20.383807-136.044733 61.15142C214.979617 590.672333 198.260315 640.143145 198.260315 698.317155c0 42.599866 7.787072 79.932006 23.361217 111.538358 15.574144 31.835384 35.041825 56.799821 58.861105 74.893313 23.81928 18.093491 53.364348 32.75151 88.635204 43.745023 35.499888 10.993514 69.396556 18.093491 101.919034 21.528965s68.709461 5.038694 108.331917 5.038693h122.073809c39.851487 0 75.809439-1.603221 108.331917-5.038693 32.522478-3.435473 66.419146-10.535451 101.919033-21.528965 35.499888-10.993514 65.044956-25.422501 88.635205-43.745023 23.81928-18.093491 43.28696-43.057929 58.861105-74.893313 16.032208-31.835384 23.590248-68.938493 23.590248-111.538358z m163.070454-128.028629c0 100.315813-14.88705 180.705882-44.432118 240.712145-18.322523 37.33214-43.974055 69.625587-76.725565 96.651308-32.75151 27.254753-66.877209 48.096623-102.606128 62.52561-35.72892 14.658018-76.954596 26.109595-123.67703 34.583762-46.722433 8.474167-88.406173 13.741892-124.822187 16.032207-36.416014 2.290315-76.954596 3.206442-121.386715 3.206442-37.790204 0-72.144934-0.687095-103.293223-2.290315-30.919257-1.374189-66.877209-4.580631-107.186759-9.161262-40.538582-4.580631-77.412659-11.90964-110.851263-21.757996-33.438604-9.848356-66.648177-22.445091-99.628719-37.561172-32.980541-14.658018-62.296578-34.35473-87.94811-58.632073-25.651532-24.277343-46.493402-52.21919-62.525609-83.596511C50.534974 751.22344 35.647924 671.062402 35.647924 570.288526c0-114.973831 32.980541-210.938045 98.941624-287.892641-13.054798-39.851487-19.696712-81.077164-19.696712-123.67703C114.892836 102.377097 127.260539 49.470812 151.995945 0c52.448222 0 98.483561 9.619325 138.106016 28.628942 39.851487 19.238649 85.657795 49.012749 137.418922 89.780362 71.457839-16.719302 146.351152-25.193469 224.908969-25.193469 71.686871 0 139.709237 7.787072 203.609036 23.361217 50.845001-39.851487 96.193245-69.167524 136.044733-87.94811 39.851487-19.009618 85.657795-28.399911 137.418922-28.39991 24.735406 49.470812 37.103109 102.377097 37.103109 158.489823 0 42.141803-6.641915 82.909416-19.696713 122.073809 65.961083 77.641691 98.941624 174.063968 98.941624 289.495862z m0 0" fill="#1296db" p-id="22512"></path><path d="M966.432089 722.136435c0 19.467681-2.97741 39.164393-9.161262 59.548199-5.95482 20.383807-16.490271 38.70633-31.37732 55.196601-14.88705 16.490271-32.293447 24.735406-52.677254 24.735406s-38.019235-8.245135-52.677253-24.735406c-14.88705-16.490271-25.193469-34.812794-31.377321-55.196601-5.95482-20.383807-9.161261-40.30955-9.161261-59.548199 0-19.467681 2.97741-39.164393 9.161261-59.5482 5.95482-20.383807 16.490271-38.70633 31.377321-55.1966 14.88705-16.490271 32.293447-24.735406 52.677253-24.735406s38.019235 8.245135 52.677254 24.735406c14.88705 16.490271 25.193469 34.812794 31.37732 55.1966 6.183851 20.154775 9.161261 40.080519 9.161262 59.5482z" fill="#1296db" p-id="22513"></path><path d="M933.680579 760.384701c0 19.467681-2.97741 39.164393-9.161262 59.5482-5.95482 20.383807-16.490271 38.70633-31.37732 55.1966-14.88705 16.490271-32.293447 24.735406-52.677254 24.735406s-38.019235-8.245135-52.677253-24.735406c-14.88705-16.490271-25.193469-34.812794-31.37732-55.1966-5.95482-20.383807-9.161261-40.30955-9.161262-59.5482 0-19.467681 2.97741-39.164393 9.161262-59.548199 5.95482-20.383807 16.490271-38.70633 31.37732-55.1966 14.88705-16.490271 32.293447-24.735406 52.677253-24.735406s38.019235 8.245135 52.677254 24.735406c14.88705 16.490271 25.193469 34.812794 31.37732 55.1966 6.183851 20.383807 9.161261 40.30955 9.161262 59.548199z" fill="#1296db" p-id="22514"></path><path d="M501.040006 722.136435c0 19.467681-2.97741 39.164393-9.161261 59.548199-5.95482 20.383807-16.490271 38.70633-31.377321 55.196601-14.88705 16.490271-32.293447 24.735406-52.677253 24.735406s-38.019235-8.245135-52.677254-24.735406c-14.88705-16.490271-25.193469-34.812794-31.37732-55.196601-5.95482-20.383807-9.161261-40.30955-9.161262-59.548199 0-19.467681 2.97741-39.164393 9.161262-59.5482 5.95482-20.383807 16.490271-38.70633 31.37732-55.1966 14.88705-16.490271 32.293447-24.735406 52.677254-24.735406s38.019235 8.245135 52.677253 24.735406c14.88705 16.490271 25.193469 34.812794 31.377321 55.1966 6.183851 20.154775 9.161261 40.080519 9.161261 59.5482z" fill="#1296db" p-id="22515"></path><path d="M468.288497 760.384701c0 19.467681-2.97741 39.164393-9.161262 59.5482-5.95482 20.383807-16.490271 38.70633-31.37732 55.1966-14.88705 16.490271-32.293447 24.735406-52.677254 24.735406s-38.019235-8.245135-52.677253-24.735406c-14.88705-16.490271-25.193469-34.812794-31.377321-55.1966-5.95482-20.383807-9.161261-40.30955-9.161261-59.5482 0-19.467681 2.97741-39.164393 9.161261-59.548199 5.95482-20.383807 16.490271-38.70633 31.377321-55.1966 14.88705-16.490271 32.293447-24.735406 52.677253-24.735406s38.019235 8.245135 52.677254 24.735406c14.88705 16.490271 25.193469 34.812794 31.37732 55.1966 6.183851 20.383807 9.161261 40.30955 9.161262 59.548199z" fill="#1296db" p-id="22516"></path><path d="M607.310639 955.061507h-27.712816c-39.851487 0-75.809439-1.603221-108.331917-5.038693-32.522478-3.435473-66.419146-10.535451-101.919033-21.528965-35.499888-10.993514-65.044956-25.422501-88.635205-43.745023-23.81928-18.093491-43.28696-43.057929-58.861105-74.893313-15.574144-31.835384-23.361217-68.938493-23.361217-111.538358 0-58.17401 16.719302-107.644822 50.157907-148.412436 33.438604-40.767614 78.786849-61.15142 136.044733-61.15142 20.84187 0 68.022366 5.038694 141.770521 15.345113 34.35473 5.267725 72.373966 8.016104 114.286737 8.016104 41.68374 0 79.702975-2.748378 114.286736-8.016104 74.664281-10.077388 121.844777-15.345113 141.770521-15.345113 42.141803 0 78.099754 11.222545 107.18676 33.438604 7.787072-37.790204 11.90964-76.725565 11.909639-116.806083 0-122.760904-38.477298-236.589577-104.209349-329.805413-17.86446 12.138671-36.416014 25.651532-55.654663 40.767614C792.139089 100.773876 724.116723 92.986804 652.429852 92.986804c-78.557817 0-153.45113 8.474167-224.679937 25.4225C375.759756 77.870722 329.953448 47.867591 290.101961 28.857974 250.479505 9.619325 204.444166 0 151.995945 0 127.260539 49.470812 114.892836 102.377097 114.892836 158.718855c0 42.599866 6.641915 83.825542 19.696712 123.67703C68.628465 359.350481 35.647924 455.314695 35.647924 570.288526c0 100.773876 15.116081 181.163945 45.119213 240.712145 16.032208 31.606352 36.874077 59.319168 62.525609 83.596511 0.916126 0.687095 1.603221 1.603221 2.519347 2.290315 86.573921 52.21919 187.80586 82.222322 296.366808 82.222322 57.257884 0 112.912548-8.474167 165.131738-24.048312z" fill="#1296db" p-id="22517"></path></svg>